<svg xmlns="http://www.w3.org/2000/svg" viewBox="0 0 510.75 99.27">
  <path d="m32.62,15.68c-1.1-6.38-6.6-10.23-13.15-10.23-6.93,0-11.77,3.3-11.77,8.58,0,5.78,7.31,7.59,14.3,9.68,7.37,2.2,17.38,5.5,17.38,15.73,0,8.86-7.65,15.35-19.25,15.35S1.65,48.13,0,39.27l5.94-1.6c.77,6.11,5.78,11.5,14.36,11.5,7.81,0,12.54-4.13,12.54-9.63,0-7.64-9.08-9.24-16.56-11.55-6-1.87-14.85-4.57-14.85-13.7C1.43,6.11,9.19,0,19.69,0c9.51,0,17.05,5.61,18.81,14.03l-5.88,1.65ZM113.47,1.1v30.8c0,14.85-7.87,22.94-21.62,22.94s-21.62-8.03-21.62-22.94V1.1h6.16v30.86c0,11.44,5.28,17.05,15.4,17.05s15.46-5.61,15.46-17.05V1.1h6.22Zm34.21,52.58V1.1h6.16v52.58h-6.16ZM226.34,1.1v5.78h-17.66v46.81h-6.1V6.87h-17.6V1.1h41.36Zm70.18,14.36c-3.63-5.78-10.29-9.41-17.66-9.41-12.04,0-20.96,8.64-20.96,21.34s9.19,21.29,20.96,21.29c8.03,0,15.13-4.29,18.54-10.89l6.11,1.65c-4.35,9.3-13.7,15.35-24.64,15.35-15.13,0-27.28-11.49-27.28-27.34S263.74.06,278.86.06c10.29,0,19.14,5.39,23.87,13.81l-6.22,1.6Zm69.63,24.48h-26.4l-5.88,13.75h-6.6L350.09,1.1h5.61l22.83,52.58h-6.6l-5.78-13.75Zm-2.31-5.44l-8.36-19.58c-1.1-2.7-2.42-6.38-2.47-6.38h-.06c-.06,0-1.38,3.69-2.48,6.38l-8.36,19.58h21.73Zm72.27-18.81c-1.16-6.38-6.6-10.23-13.15-10.23-6.93,0-11.77,3.3-11.77,8.58,0,5.78,7.32,7.59,14.3,9.68,7.37,2.2,17.38,5.5,17.38,15.73,0,8.86-7.64,15.35-19.25,15.35s-18.43-6.6-20.08-15.46l5.94-1.6c.77,6.11,5.78,11.5,14.36,11.5,7.81,0,12.54-4.13,12.54-9.63,0-7.65-9.07-9.24-16.55-11.55-6-1.87-14.85-4.57-14.85-13.7,0-8.2,7.76-14.3,18.26-14.3,9.52,0,17.05,5.61,18.81,14.02l-5.94,1.6Zm74.64,32.23v5.78h-35.53V1.1h35.09v5.78h-28.93v16.23h23.21v5.5h-23.21v19.31h29.37Zm0,0" style="stroke-width: 0px;"/>
  <g>
    <path d="m43.58,83.14h5c5.36,0,8.04,2.61,8.04,7.84s-2.68,8.01-8.04,8.01h-5v-15.86Zm2.09,13.97h2.87c2.29,0,3.85-.54,4.68-1.61s1.25-2.58,1.25-4.53-.41-3.36-1.24-4.4c-.83-1.04-2.39-1.56-4.69-1.56h-2.87v12.09Z" style="fill: #1d1d1b; stroke-width: 0px;"/>
    <path d="m68.47,99h-2.1v-15.86h2.1v15.86Z" style="fill: #1d1d1b; stroke-width: 0px;"/>
    <path d="m84.8,99.27c-2.22,0-3.89-.5-4.99-1.5-1.1-1-1.68-2.29-1.74-3.86h2.01c.11,1.18.6,2.06,1.47,2.62.87.57,1.92.85,3.16.85,1.17,0,2.11-.24,2.83-.72.71-.48,1.07-1.14,1.07-1.97,0-.87-.37-1.51-1.11-1.9-.74-.4-2.01-.79-3.81-1.17-1.8-.39-3.1-.92-3.88-1.61s-1.18-1.6-1.18-2.74c0-1.28.51-2.34,1.53-3.16,1.02-.82,2.38-1.23,4.07-1.23,1.78,0,3.21.41,4.3,1.24s1.67,2,1.73,3.52h-2.03c-.21-1.92-1.51-2.88-3.92-2.88-1.16,0-2.06.22-2.7.66-.64.44-.96,1.02-.96,1.75,0,.66.26,1.16.77,1.49.51.33,1.47.65,2.87.96,1.4.31,2.52.62,3.34.92.82.3,1.53.77,2.12,1.41.59.64.88,1.49.88,2.57,0,1.36-.54,2.5-1.62,3.4s-2.49,1.35-4.22,1.35Z" style="fill: #1d1d1b; stroke-width: 0px;"/>
    <path d="m106.77,99.27c-2.23,0-4.01-.74-5.34-2.21-1.33-1.47-2-3.47-2-5.99s.67-4.51,2-5.99c1.33-1.47,3.11-2.21,5.34-2.21,1.71,0,3.17.46,4.38,1.4s1.88,2.16,2.03,3.68h-2.15c-.09-1-.52-1.8-1.3-2.39-.78-.59-1.76-.89-2.94-.89-1.6,0-2.87.55-3.8,1.66-.93,1.11-1.4,2.69-1.4,4.74s.46,3.63,1.39,4.74c.93,1.11,2.18,1.67,3.77,1.67,1.23,0,2.23-.3,2.99-.91.76-.61,1.19-1.47,1.29-2.6h2.15c-.15,1.69-.81,2.99-1.98,3.92-1.17.92-2.65,1.38-4.43,1.38Z" style="fill: #1d1d1b; stroke-width: 0px;"/>
    <path d="m129.52,82.87c2.21,0,4.02.75,5.42,2.25,1.41,1.5,2.11,3.48,2.11,5.95s-.7,4.45-2.11,5.95c-1.41,1.5-3.21,2.25-5.42,2.25s-4.03-.75-5.45-2.26c-1.41-1.5-2.12-3.48-2.12-5.94s.71-4.45,2.12-5.95c1.41-1.5,3.23-2.25,5.45-2.25Zm-.02,14.6c1.58,0,2.87-.56,3.88-1.69,1.01-1.12,1.51-2.7,1.51-4.72s-.5-3.59-1.51-4.72c-1-1.12-2.29-1.69-3.84-1.69s-2.89.56-3.9,1.69c-1.02,1.12-1.52,2.7-1.52,4.72s.51,3.58,1.52,4.71,2.3,1.69,3.86,1.69Z" style="fill: #1d1d1b; stroke-width: 0px;"/>
    <path d="m159.22,83.14l-6.13,15.86h-2.15l-6.13-15.86h2.23l4.98,13.6,4.98-13.6h2.23Z" style="fill: #1d1d1b; stroke-width: 0px;"/>
    <path d="m179.51,99h-11.76v-15.86h11.4v1.88h-9.31v4.85h8.71v1.88h-8.71v5.36h9.67v1.88Z" style="fill: #1d1d1b; stroke-width: 0px;"/>
    <path d="m202.21,99h-2.26l-1.49-4.23c-.27-.75-.71-1.36-1.32-1.84-.62-.48-1.33-.71-2.13-.71h-3.86v6.78h-2.09v-15.86h6.98c1.22,0,2.22.12,2.99.36.77.24,1.41.74,1.89,1.5.49.76.73,1.63.73,2.59,0,1.1-.32,2.01-.95,2.75s-1.5,1.22-2.59,1.44v.04c1.1.35,1.93,1.31,2.51,2.87l1.58,4.32Zm-11.06-8.66h4.66c1.3,0,2.24-.21,2.82-.62.58-.41.88-1.12.88-2.13,0-1.8-1.13-2.7-3.38-2.7h-4.98v5.45Z" style="fill: #1d1d1b; stroke-width: 0px;"/>
    <path d="m242.88,83.14l-4.37,15.86h-2l-3.79-13.78-3.8,13.78h-2l-4.36-15.86h2.2l3.15,12.91,3.55-12.91h2.51l3.55,12.91,3.15-12.91h2.21Z" style="fill: #1d1d1b; stroke-width: 0px;"/>
    <path d="m263.85,99h-2.1v-7.46h-8.2v7.46h-2.09v-15.86h2.09v6.51h8.2v-6.51h2.1v15.86Z" style="fill: #1d1d1b; stroke-width: 0px;"/>
    <path d="m286.95,99h-2.36l-1.83-4.82h-6.61l-1.74,4.82h-2.21l6.06-15.86h2.25l6.44,15.86Zm-4.8-6.49l-2.78-7.35-2.65,7.35h5.42Z" style="fill: #1d1d1b; stroke-width: 0px;"/>
    <path d="m306.52,85.03h-5.22v13.97h-2.1v-13.97h-5.18v-1.88h12.49v1.88Z" style="fill: #1d1d1b; stroke-width: 0px;"/>
    <path d="m342.68,99h-1.98v-13.49l-4.5,13.49h-1.87l-4.5-13.49v13.49h-1.98v-15.86h3.13l4.27,13.22,4.29-13.22h3.13v15.86Z" style="fill: #1d1d1b; stroke-width: 0px;"/>
    <path d="m365.77,99h-2.36l-1.83-4.82h-6.61l-1.74,4.82h-2.21l6.06-15.86h2.25l6.44,15.86Zm-4.8-6.49l-2.78-7.35-2.65,7.35h5.42Z" style="fill: #1d1d1b; stroke-width: 0px;"/>
    <path d="m385.34,85.03h-5.22v13.97h-2.1v-13.97h-5.18v-1.88h12.49v1.88Z" style="fill: #1d1d1b; stroke-width: 0px;"/>
    <path d="m405.41,85.03h-5.22v13.97h-2.1v-13.97h-5.18v-1.88h12.49v1.88Z" style="fill: #1d1d1b; stroke-width: 0px;"/>
    <path d="m426.04,99h-11.76v-15.86h11.4v1.88h-9.31v4.85h8.71v1.88h-8.71v5.36h9.67v1.88Z" style="fill: #1d1d1b; stroke-width: 0px;"/>
    <path d="m448.74,99h-2.26l-1.49-4.23c-.27-.75-.71-1.36-1.32-1.84-.62-.48-1.33-.71-2.13-.71h-3.86v6.78h-2.09v-15.86h6.98c1.22,0,2.22.12,2.99.36.78.24,1.41.74,1.89,1.5.49.76.73,1.63.73,2.59,0,1.1-.32,2.01-.95,2.75-.63.74-1.5,1.22-2.59,1.44v.04c1.1.35,1.93,1.31,2.51,2.87l1.58,4.32Zm-11.06-8.66h4.66c1.3,0,2.24-.21,2.83-.62.58-.41.88-1.12.88-2.13,0-1.8-1.13-2.7-3.38-2.7h-4.98v5.45Z" style="fill: #1d1d1b; stroke-width: 0px;"/>
    <path d="m464.06,99.27c-2.22,0-3.89-.5-4.99-1.5-1.1-1-1.68-2.29-1.74-3.86h2.01c.11,1.18.6,2.06,1.47,2.62.87.57,1.92.85,3.16.85,1.17,0,2.11-.24,2.82-.72.71-.48,1.07-1.14,1.07-1.97,0-.87-.37-1.51-1.11-1.9-.74-.4-2.01-.79-3.82-1.17-1.8-.39-3.1-.92-3.88-1.61-.79-.69-1.18-1.6-1.18-2.74,0-1.28.51-2.34,1.53-3.16,1.02-.82,2.38-1.23,4.07-1.23,1.78,0,3.21.41,4.3,1.24,1.09.83,1.67,2,1.73,3.52h-2.03c-.21-1.92-1.51-2.88-3.92-2.88-1.16,0-2.06.22-2.7.66-.64.44-.96,1.02-.96,1.75,0,.66.26,1.16.77,1.49.51.33,1.47.65,2.87.96,1.4.31,2.52.62,3.34.92s1.53.77,2.12,1.41c.59.64.88,1.49.88,2.57,0,1.36-.54,2.5-1.62,3.4s-2.49,1.35-4.22,1.35Z" style="fill: #1d1d1b; stroke-width: 0px;"/>
  </g>
</svg>