<svg width="302" height="42" viewBox="0 0 302 42" fill="none" xmlns="http://www.w3.org/2000/svg">
<path d="M16.982 0.244998C27.812 0.244998 31.631 6.116 32.087 10.79H26.273C25.988 7.598 23.423 4.748 16.982 4.748C9.91401 4.748 7.12101 7.655 7.12101 11.075C7.12101 15.35 10.313 17.117 15.386 17.858L19.946 18.542C27.698 19.739 32.942 22.475 32.942 29.999C32.942 36.839 27.356 41.855 16.982 41.855C6.26601 41.855 1.02201 36.668 0.737008 30.455H6.43701C6.66501 34.844 10.199 37.352 16.982 37.352C23.651 37.352 27.299 34.559 27.299 30.455C27.299 25.838 23.993 24.926 18.806 24.014L14.246 23.273C6.43701 22.076 1.59201 18.542 1.59201 11.474C1.59201 5.318 6.55101 0.244998 16.982 0.244998ZM59.8763 41.855C49.8443 41.855 43.9163 35.243 43.9163 26.75V1.1H49.6163V26.75C49.6163 33.077 53.5493 37.01 59.8763 37.01C66.2033 37.01 70.1363 33.077 70.1363 26.75V1.1H75.8363V26.75C75.8363 35.243 69.9083 41.855 59.8763 41.855ZM89.6094 41V1.1H95.3094V41H89.6094ZM137.733 5.945H124.338V41H118.638V5.945H105.243V1.1H137.733V5.945ZM179.821 30.455C177.541 37.181 171.841 41.855 163.006 41.855C151.036 41.855 143.341 33.077 143.341 21.05C143.341 9.08 151.036 0.244998 163.006 0.244998C171.499 0.244998 176.971 4.406 179.536 10.79H173.323C171.499 7.313 168.25 5.09 163.006 5.09C153.601 5.09 149.041 12.842 149.041 21.05C149.041 29.258 153.601 37.01 163.006 37.01C168.877 37.01 172.126 34.274 173.665 30.455H179.821ZM214.354 31.595H195.544L191.839 41H185.854L202.099 1.1H207.799L224.044 41H218.059L214.354 31.595ZM204.835 7.37C203.98 9.935 202.669 13.925 201.13 17.573L197.482 26.75H212.416L208.768 17.573C207.229 13.925 205.918 9.935 205.063 7.37H204.835ZM245.988 0.244998C256.818 0.244998 260.637 6.116 261.093 10.79H255.279C254.994 7.598 252.429 4.748 245.988 4.748C238.92 4.748 236.127 7.655 236.127 11.075C236.127 15.35 239.319 17.117 244.392 17.858L248.952 18.542C256.704 19.739 261.948 22.475 261.948 29.999C261.948 36.839 256.362 41.855 245.988 41.855C235.272 41.855 230.028 36.668 229.743 30.455H235.443C235.671 34.844 239.205 37.352 245.988 37.352C252.657 37.352 256.305 34.559 256.305 30.455C256.305 25.838 252.999 24.926 247.812 24.014L243.252 23.273C235.443 22.076 230.598 18.542 230.598 11.474C230.598 5.318 235.557 0.244998 245.988 0.244998ZM273.379 1.1H301.309V5.945H279.079V17.915H300.169V22.76H279.079V36.155H301.309V41H273.379V1.1Z" fill="white"/>
</svg>
