<svg xmlns="http://www.w3.org/2000/svg" viewBox="0 0 510.75 54.84">
  <path d="m32.62,15.68c-1.1-6.38-6.6-10.23-13.15-10.23-6.93,0-11.77,3.3-11.77,8.58,0,5.78,7.31,7.59,14.3,9.68,7.37,2.2,17.38,5.5,17.38,15.73,0,8.86-7.65,15.35-19.25,15.35S1.65,48.13,0,39.27l5.94-1.6c.77,6.11,5.78,11.5,14.36,11.5,7.81,0,12.54-4.13,12.54-9.63,0-7.64-9.08-9.24-16.56-11.55-6-1.87-14.85-4.57-14.85-13.7C1.43,6.11,9.19,0,19.69,0c9.51,0,17.05,5.61,18.81,14.03l-5.88,1.65ZM113.47,1.1v30.8c0,14.85-7.87,22.94-21.62,22.94s-21.62-8.03-21.62-22.94V1.1h6.16v30.86c0,11.44,5.28,17.05,15.4,17.05s15.46-5.61,15.46-17.05V1.1h6.22Zm34.21,52.58V1.1h6.16v52.58h-6.16ZM226.34,1.1v5.78h-17.66v46.81h-6.1V6.87h-17.6V1.1h41.36Zm70.18,14.36c-3.63-5.78-10.29-9.41-17.66-9.41-12.04,0-20.96,8.64-20.96,21.34s9.19,21.29,20.96,21.29c8.03,0,15.13-4.29,18.54-10.89l6.11,1.65c-4.35,9.3-13.7,15.35-24.64,15.35-15.13,0-27.28-11.49-27.28-27.34S263.74.06,278.86.06c10.29,0,19.14,5.39,23.87,13.81l-6.22,1.6Zm69.63,24.48h-26.4l-5.88,13.75h-6.6L350.09,1.1h5.61l22.83,52.58h-6.6l-5.78-13.75Zm-2.31-5.44l-8.36-19.58c-1.1-2.7-2.42-6.38-2.47-6.38h-.06c-.06,0-1.38,3.69-2.48,6.38l-8.36,19.58h21.73Zm72.27-18.81c-1.16-6.38-6.6-10.23-13.15-10.23-6.93,0-11.77,3.3-11.77,8.58,0,5.78,7.32,7.59,14.3,9.68,7.37,2.2,17.38,5.5,17.38,15.73,0,8.86-7.64,15.35-19.25,15.35s-18.43-6.6-20.08-15.46l5.94-1.6c.77,6.11,5.78,11.5,14.36,11.5,7.81,0,12.54-4.13,12.54-9.63,0-7.65-9.07-9.24-16.55-11.55-6-1.87-14.85-4.57-14.85-13.7,0-8.2,7.76-14.3,18.26-14.3,9.52,0,17.05,5.61,18.81,14.02l-5.94,1.6Zm74.64,32.23v5.78h-35.53V1.1h35.09v5.78h-28.93v16.23h23.21v5.5h-23.21v19.31h29.37Zm0,0" style="stroke-width: 0px;"/>
</svg>